<?xml version="1.0" encoding="UTF-8" standalone="no"?>
<svg width="16px" height="14px" viewBox="0 0 16 14" version="1.1" xmlns="http://www.w3.org/2000/svg" xmlns:xlink="http://www.w3.org/1999/xlink">
    <!-- Generator: sketchtool 42 (36781) - http://www.bohemiancoding.com/sketch -->
    <title>6AF37573-C962-4BAD-AC66-937F7D44785B</title>
    <desc>Created with sketchtool.</desc>
    <defs></defs>
    <g id="Page-1" stroke="none" stroke-width="1" fill="none" fill-rule="evenodd">
        <g id="Vocabulary" transform="translate(-757.000000, -623.000000)" fill="#70757B">
            <g id="audio-ic" transform="translate(753.000000, 618.000000)">
                <g id="Audio-Icon" transform="translate(1.000000, 1.000000)">
                    <path d="M15.0121666,4.12785708 C14.8326189,3.95699319 14.5413144,3.95745939 14.3607842,4.12878948 L14.1434111,4.33485179 C13.962881,4.50618188 13.9623897,4.78287415 14.1424287,4.95373805 L14.4676286,5.26236525 C16.0872424,6.79431264 16.9781036,8.83046004 16.9781036,10.9938812 C16.9781036,13.161032 16.0845406,15.1997435 14.4629619,16.7349543 L14.1355513,17.0449802 C13.9550211,17.2165434 13.9547755,17.493935 14.1350601,17.665032 L14.3526788,17.8717936 C14.533209,18.0428906 14.825496,18.0428906 15.0060262,17.8708611 L15.3329455,17.5608353 C19.1545363,13.9402925 19.1565013,8.05726022 15.3373666,4.43648433 C15.3309805,4.43019057 15.0121666,4.12785708 15.0121666,4.12785708 Z" id="Fill-1"></path>
                    <path d="M12.3617984,6.45310777 L12.3617984,6.45310777 L12.0353703,6.13503077 C11.8558226,5.95572867 11.5615707,5.95474627 11.3822686,6.13355707 L11.1646499,6.34945647 C10.985839,6.52851297 10.9308203,6.81858937 11.1101224,6.99862827 L11.3793212,7.32382827 L11.3793212,7.32726697 C13.589895,9.40004827 13.5142442,12.6309247 11.4171465,14.8414985 L11.4471121,14.8414985 L11.1447547,15.1497508 C10.9642245,15.3307722 10.9701194,15.6179012 11.1486846,15.796712 L11.3687595,16.0101552 C11.5475704,16.1897029 11.8408399,16.1872467 12.02137,16.0059797 L12.3490262,15.6785691 L12.3566404,15.6773411 C14.9339238,13.132725 14.8179915,8.99575887 12.3617984,6.45310777" id="Fill-4"></path>
                    <path d="M9,5 L6,8 L4,8 C3.25608779,8.23376865 3,8.51668877 3,9 L3,11 L3,13 C3,13.6347404 3.25608779,13.9176604 4,14 L6,14 L9,17 L9,5 Z" id="Fill-6"></path>
                </g>
            </g>
        </g>
    </g>
</svg>
